<svg width="100" height="92" viewBox="0 0 100 92" fill="none" xmlns="http://www.w3.org/2000/svg">
<path d="M22.8333 38.0373L29.4292 31.9373C37.1542 35.6707 42.0458 38.5123 50.7208 44.6998C67.0375 26.1915 77.8167 16.7998 97.85 4.33317L100 9.27484C83.4792 23.6915 71.375 39.7498 53.9542 70.9998C43.2083 58.3415 36.0333 50.2748 22.8333 38.0373V38.0373ZM82.8625 40.3582C83.1417 42.204 83.3333 44.079 83.3333 45.9998C83.3333 66.6748 66.5083 83.4998 45.8333 83.4998C25.1583 83.4998 8.33333 66.6748 8.33333 45.9998C8.33333 25.3248 25.1583 8.49984 45.8333 8.49984C54.0458 8.49984 61.625 11.1832 67.8083 15.679C69.9792 13.8207 72.1917 12.0082 74.475 10.2498C66.625 3.954 56.6792 0.166504 45.8333 0.166504C20.5208 0.166504 0 20.6873 0 45.9998C0 71.3123 20.5208 91.8332 45.8333 91.8332C71.1458 91.8332 91.6667 71.3123 91.6667 45.9998C91.6667 41.0873 90.875 36.3623 89.4417 31.9248C87.2417 34.5623 85.0583 37.3623 82.8625 40.3582V40.3582Z" fill="#27D095"/>
</svg>
